<svg width="32" height="17" viewBox="0 0 32 17" fill="none" xmlns="http://www.w3.org/2000/svg">
<path d="M0.445905 16V0.829168H4.55755C5.66088 0.829168 6.46252 1.09925 6.96247 1.63943C7.46816 2.17386 7.72101 3.05882 7.72101 4.29432V4.95805C7.72101 5.67062 7.59171 6.24814 7.33312 6.69063C7.08027 7.13311 6.69238 7.42331 6.16945 7.56122C6.85328 7.73362 7.31013 8.13875 7.53999 8.77662C7.7756 9.40873 7.8934 10.1816 7.8934 11.0953C7.8934 12.078 7.80146 12.9371 7.61757 13.6727C7.43368 14.4082 7.10038 14.98 6.61768 15.388C6.13497 15.796 5.44826 16 4.55755 16H0.445905ZM3.41111 6.54409H4.03174C4.31332 6.54409 4.49433 6.43491 4.57479 6.21654C4.65524 5.99817 4.69546 5.7367 4.69546 5.43214V3.90643C4.69546 3.41798 4.47997 3.17375 4.04898 3.17375H3.41111V6.54409ZM3.71281 13.3279C4.50008 13.3279 4.89372 12.9543 4.89372 12.2073V10.3109C4.89372 9.87995 4.82763 9.5409 4.69546 9.2938C4.56904 9.04096 4.32768 8.91453 3.9714 8.91453H3.41111V13.3106C3.53754 13.3221 3.6381 13.3279 3.71281 13.3279ZM8.8933 16V0.829168H11.9275V13.4141H15.0478V16H8.8933ZM19.5301 16.1379C18.3176 16.1379 17.3895 15.773 16.7459 15.0432C16.1081 14.3076 15.7891 13.2474 15.7891 11.8625V4.65636C15.7891 3.35764 16.1052 2.37211 16.7373 1.69977C17.3752 1.02742 18.3061 0.691251 19.5301 0.691251C20.7541 0.691251 21.6822 1.02742 22.3143 1.69977C22.9522 2.37211 23.2711 3.35764 23.2711 4.65636V11.8625C23.2711 13.2474 22.9493 14.3076 22.3057 15.0432C21.6678 15.773 20.7426 16.1379 19.5301 16.1379ZM19.556 13.3451C20.0157 13.3451 20.2456 12.8997 20.2456 12.009V4.60464C20.2456 3.85759 20.0215 3.48406 19.5732 3.48406C19.0675 3.48406 18.8147 3.86621 18.8147 4.6305V12.0263C18.8147 12.4975 18.8721 12.8365 18.9871 13.0434C19.102 13.2445 19.2916 13.3451 19.556 13.3451ZM27.6241 16.1379C25.4577 16.1379 24.3744 14.5864 24.3744 11.4832V4.94081C24.3744 2.10777 25.6157 0.691251 28.0982 0.691251C29.1211 0.691251 29.9055 0.898126 30.4514 1.31188C30.9973 1.71988 31.3737 2.31752 31.5806 3.10479C31.7875 3.89207 31.8909 4.85174 31.8909 5.9838H28.9257V4.63912C28.9257 4.31156 28.8797 4.0386 28.7878 3.82024C28.7016 3.59612 28.5177 3.48406 28.2361 3.48406C27.8856 3.48406 27.6528 3.60187 27.5379 3.83748C27.4287 4.07308 27.3741 4.33168 27.3741 4.61326V11.9659C27.3741 12.3739 27.4259 12.7072 27.5293 12.9658C27.6385 13.2187 27.8482 13.3451 28.1585 13.3451C28.4803 13.3451 28.693 13.2187 28.7964 12.9658C28.9056 12.7072 28.9602 12.3682 28.9602 11.9487V9.78513H28.1499V7.16471H31.8564V16H30.641L30.1238 14.7243C29.5952 15.6667 28.7619 16.1379 27.6241 16.1379Z" fill="black"/>
</svg>
