<svg width="20" height="20" viewBox="0 0 20 20" fill="none" xmlns="http://www.w3.org/2000/svg">
<g clip-path="url(#clip0_191_2366)">
<path d="M9.98999 14.6501V12.1101" stroke="#4A4A49" stroke-width="1.5" stroke-linecap="round" stroke-linejoin="round"/>
<path d="M16.22 3.33008C17.0194 3.34575 17.7809 3.6737 18.3416 4.24371C18.9022 4.81373 19.2175 5.58053 19.22 6.38007V6.38007V9.82007C16.3743 11.3363 13.1994 12.1294 9.97498 12.1294C6.75056 12.1294 3.57564 11.3363 0.72998 9.82007V6.37006C0.73244 5.57052 1.04773 4.80372 1.6084 4.2337C2.16907 3.66369 2.93059 3.33574 3.72998 3.32007H16.22V3.33008Z" stroke="#4A4A49" stroke-width="1.5" stroke-linecap="round" stroke-linejoin="round"/>
<path d="M13.49 3.33002V2.96002C13.49 2.37389 13.2571 1.81179 12.8427 1.39734C12.4282 0.982883 11.8662 0.75 11.28 0.75H8.69995C8.11382 0.75 7.55166 0.982883 7.13721 1.39734C6.72275 1.81179 6.48999 2.37389 6.48999 2.96002V3.33002" stroke="#4A4A49" stroke-width="1.5" stroke-linecap="round" stroke-linejoin="round"/>
<path d="M0.77002 13.48L0.959961 15.99C1.02279 16.8045 1.3901 17.5654 1.98865 18.1213C2.58719 18.6772 3.37306 18.9874 4.18994 18.99H15.7899C16.6085 18.9899 17.397 18.6809 17.9977 18.1247C18.5983 17.5685 18.9671 16.8062 19.03 15.99L19.21 13.48" stroke="#4A4A49" stroke-width="1.5" stroke-linecap="round" stroke-linejoin="round"/>
</g>
<defs>
<clipPath id="clip0_191_2366">
<rect width="19.99" height="19.74" fill="white"/>
</clipPath>
</defs>
</svg>
