<svg width="26" height="26" viewBox="0 0 26 26" fill="none" xmlns="http://www.w3.org/2000/svg">
<path d="M18.7048 3.8444L22.7415 8.88609C23.2736 9.55129 23.5632 10.3779 23.5625 11.2298V19.4702H23.5455C23.5455 19.5826 23.5625 19.695 23.5625 19.8109C23.5588 20.7126 23.23 21.5828 22.6366 22.2617C22.0431 22.9406 21.2247 23.3827 20.3315 23.5069C19.4384 23.6312 18.5304 23.4291 17.7742 22.938C17.0179 22.4468 16.4642 21.6993 16.2146 20.8328H9.78984C9.54318 21.703 8.99011 22.4546 8.2327 22.9489C7.47528 23.4432 6.56464 23.6469 5.6688 23.5224C4.77297 23.3979 3.9524 22.9535 3.35851 22.2714C2.76463 21.5892 2.4375 20.7153 2.4375 19.8109C2.4375 18.9064 2.76463 18.0325 3.35851 17.3503C3.9524 16.6682 4.77297 16.2239 5.6688 16.0994C6.56464 15.9748 7.47528 16.1785 8.2327 16.6728C8.99011 17.1672 9.54318 17.9187 9.78984 18.7889H16.2146C16.3661 18.2569 16.6335 17.765 16.9976 17.3486C17.3618 16.9322 17.8136 16.6015 18.3206 16.3804C18.8277 16.1593 19.3774 16.0532 19.9303 16.0697C20.4832 16.0862 21.0256 16.2249 21.5186 16.4759V11.2945H14.3648C13.9131 11.2945 13.4799 11.1151 13.1604 10.7956C12.841 10.4762 12.6616 10.043 12.6616 9.59124V4.48143H2.44193V2.4375H15.7785C16.3406 2.43754 16.8954 2.56402 17.402 2.80756C17.9085 3.05109 18.3537 3.40546 18.7048 3.8444ZM6.18913 18.1076C5.85225 18.1076 5.52294 18.2075 5.24284 18.3946C4.96274 18.5818 4.74443 18.8478 4.61551 19.1591C4.48659 19.4703 4.45287 19.8128 4.51859 20.1432C4.58431 20.4736 4.74653 20.7771 4.98473 21.0153C5.22294 21.2535 5.52644 21.4157 5.85684 21.4814C6.18724 21.5471 6.52971 21.5134 6.84094 21.3845C7.15217 21.2556 7.41819 21.0373 7.60535 20.7572C7.79251 20.4771 7.8924 20.1477 7.8924 19.8109C7.8924 19.3591 7.71295 18.9259 7.39352 18.6065C7.0741 18.287 6.64086 18.1076 6.18913 18.1076ZM19.8153 18.1076C19.4784 18.1076 19.1491 18.2075 18.869 18.3946C18.5889 18.5818 18.3706 18.8478 18.2417 19.1591C18.1128 19.4703 18.079 19.8128 18.1448 20.1432C18.2105 20.4736 18.3727 20.7771 18.6109 21.0153C18.8491 21.2535 19.1526 21.4157 19.483 21.4814C19.8134 21.5471 20.1559 21.5134 20.4671 21.3845C20.7783 21.2556 21.0444 21.0373 21.2315 20.7572C21.4187 20.4771 21.5186 20.1477 21.5186 19.8109C21.5186 19.3591 21.3391 18.9259 21.0197 18.6065C20.7003 18.287 20.267 18.1076 19.8153 18.1076V18.1076ZM14.7055 9.25059H20.4149L17.1105 5.12186C16.9508 4.92192 16.7482 4.76052 16.5176 4.64965C16.287 4.53878 16.0344 4.48128 15.7785 4.48143H14.7055V9.25059Z" fill="#4A4A49"/>
<path d="M2.44195 7.20654H9.93634V9.25047H2.44195V7.20654Z" fill="#4A4A49"/>
<path d="M2.44193 11.9758H6.52979V14.0198H2.44193V11.9758Z" fill="#4A4A49"/>
</svg>
