<svg width="34" height="34" viewBox="0 0 34 34" fill="none" xmlns="http://www.w3.org/2000/svg">
<path d="M7.6491 6.09166L12.1006 21.2833C12.2899 21.9218 12.6794 22.4816 13.2111 22.8793C13.7427 23.277 14.388 23.4912 15.0507 23.4901H24.7614C25.4065 23.4899 26.0352 23.2856 26.5583 22.9062C27.0815 22.5267 27.4727 21.9914 27.6763 21.376L30.7493 12.1074C30.82 11.8962 30.84 11.6711 30.8075 11.4506C30.7751 11.2301 30.6912 11.0205 30.5628 10.8388C30.4343 10.6572 30.265 10.5086 30.0685 10.4054C29.872 10.3022 29.654 10.2472 29.4323 10.2449H11.6133L10.1558 5.28397L10.1251 5.19128C9.90538 4.60289 9.51243 4.09584 8.99866 3.73782C8.48489 3.37979 7.87473 3.18781 7.24961 3.1875H3.19763V5.83567H7.24961C7.33358 5.83546 7.41584 5.85946 7.48665 5.90484C7.55746 5.95021 7.61384 6.01504 7.6491 6.09166ZM27.7114 12.8974L25.1784 20.5418C25.149 20.6295 25.0928 20.7056 25.018 20.7595C24.9432 20.8133 24.8534 20.8422 24.7614 20.8419H15.0507C14.9527 20.8459 14.8562 20.8167 14.7767 20.7591C14.6971 20.7015 14.639 20.6188 14.6117 20.5242L12.3903 12.8974H27.7114Z" fill="#FFDA00"/>
<path d="M12.6361 30.5519C13.4847 30.5519 14.1726 29.8603 14.1726 29.0072C14.1726 28.154 13.4847 27.4624 12.6361 27.4624C11.7875 27.4624 11.0996 28.154 11.0996 29.0072C11.0996 29.8603 11.7875 30.5519 12.6361 30.5519Z" fill="#FFDA00"/>
<path d="M27.1232 30.5519C27.9718 30.5519 28.6597 29.8603 28.6597 29.0072C28.6597 28.154 27.9718 27.4624 27.1232 27.4624C26.2746 27.4624 25.5867 28.154 25.5867 29.0072C25.5867 29.8603 26.2746 30.5519 27.1232 30.5519Z" fill="#FFDA00"/>
</svg>
