<svg width="12" height="11" viewBox="0 0 12 11" fill="none" xmlns="http://www.w3.org/2000/svg">
<g clip-path="url(#clip0_299_1459)">
<path d="M9.55201 6.84301C9.47254 6.91642 9.41332 7.00784 9.37978 7.10895C9.34625 7.21006 9.33947 7.31766 9.36001 7.42196L9.89402 10.2704C9.91602 10.3886 9.90224 10.5105 9.85436 10.6214C9.80648 10.7323 9.72651 10.8275 9.62401 10.8956C9.52344 10.9665 9.40414 11.0084 9.27992 11.0166C9.1557 11.0248 9.03165 10.9989 8.92202 10.942L6.26399 9.6046C6.17135 9.5575 6.06867 9.53173 5.96399 9.52934H5.83201C5.77455 9.53435 5.71908 9.5522 5.67 9.58146L3.012 10.9246C2.88044 10.9884 2.73143 11.0107 2.58602 10.9883C2.41516 10.9572 2.26364 10.863 2.16386 10.7256C2.06408 10.5882 2.02395 10.4186 2.05202 10.253L2.58602 7.40461C2.60549 7.30032 2.59815 7.19299 2.56467 7.09206C2.5312 6.99113 2.47261 6.89968 2.39402 6.82566L0.227992 4.79935C0.139187 4.71653 0.0767735 4.61094 0.0480725 4.49503C0.0193715 4.37913 0.0256035 4.25774 0.0660168 4.14513C0.105828 4.03282 0.17655 3.93307 0.270619 3.85658C0.364687 3.78009 0.478567 3.72975 0.600026 3.71092L3.60003 3.29406C3.71176 3.28294 3.81873 3.24475 3.91105 3.183C4.00336 3.12125 4.07799 3.03797 4.12799 2.94091L5.44199 0.341445C5.47304 0.283462 5.51356 0.230688 5.562 0.185136L5.61602 0.144605C5.64399 0.115083 5.67633 0.0897177 5.712 0.0693391H5.77799L5.88002 0.0288086H6.13201C6.24267 0.040858 6.34863 0.078803 6.44065 0.13934C6.53267 0.199877 6.60796 0.281178 6.66001 0.376181L7.99199 2.96408C8.0384 3.05799 8.10817 3.13937 8.19506 3.20099C8.28194 3.2626 8.38326 3.30255 8.49 3.31724L11.49 3.73407C11.6136 3.75092 11.73 3.80039 11.8264 3.877C11.9227 3.95362 11.9953 4.05441 12.036 4.16828C12.0742 4.28203 12.0781 4.40391 12.0473 4.51973C12.0165 4.63556 11.9523 4.74056 11.862 4.82249L9.55201 6.84301Z" fill="#FFD913"/>
</g>
<defs>
<clipPath id="clip0_299_1459">
<rect width="12" height="11" fill="white"/>
</clipPath>
</defs>
</svg>
