<svg width="18" height="19" viewBox="0 0 18 19" fill="none" xmlns="http://www.w3.org/2000/svg">
<g clip-path="url(#clip0_299_1326)">
<path d="M13.2396 0.946056L10.9504 0.942383C8.37852 0.942383 6.71647 2.64761 6.71647 5.28689V7.29H4.41477C4.21587 7.29 4.05481 7.45125 4.05481 7.65015V10.5524C4.05481 10.7513 4.21606 10.9124 4.41477 10.9124H6.71647V18.2358C6.71647 18.4347 6.87754 18.5957 7.07643 18.5957H10.0795C10.2784 18.5957 10.4395 18.4345 10.4395 18.2358V10.9124H13.1307C13.3296 10.9124 13.4907 10.7513 13.4907 10.5524L13.4918 7.65015C13.4918 7.55465 13.4537 7.46319 13.3863 7.3956C13.3189 7.32802 13.2271 7.29 13.1316 7.29H10.4395V5.59194C10.4395 4.77578 10.6339 4.36146 11.6971 4.36146L13.2392 4.36091C13.4379 4.36091 13.599 4.19966 13.599 4.00095V1.30602C13.599 1.10749 13.4381 0.946423 13.2396 0.946056Z" fill="black"/>
</g>
<defs>
<clipPath id="clip0_299_1326">
<rect width="17.6533" height="17.6533" fill="white" transform="translate(0 0.942383)"/>
</clipPath>
</defs>
</svg>
