<svg width="20" height="19" viewBox="0 0 20 19" fill="none" xmlns="http://www.w3.org/2000/svg">
<g clip-path="url(#clip0_191_1788)">
<path d="M11.5 18.1899H18.75" stroke="#4A4A49" stroke-width="1.5" stroke-linecap="round" stroke-linejoin="round"/>
<path d="M10.53 1.54997C10.9075 1.10257 11.4446 0.819888 12.0271 0.762008C12.6096 0.704128 13.1918 0.875551 13.65 1.23991L15.38 2.58989C15.8684 2.88114 16.2215 3.35407 16.3621 3.90507C16.5027 4.45608 16.4192 5.04033 16.13 5.52995V5.52995C16.13 5.58995 6.59 17.4799 6.59 17.4799C6.43324 17.6769 6.23399 17.8359 6.00714 17.945C5.7803 18.0541 5.53172 18.1104 5.28 18.1099H1.64002L0.820011 14.6399C0.761362 14.3977 0.759722 14.1452 0.81525 13.9023C0.870779 13.6593 0.981969 13.4326 1.14002 13.2399L10.53 1.54997Z" stroke="#4A4A49" stroke-width="1.5" stroke-linecap="round" stroke-linejoin="round"/>
<path d="M8.76999 3.75L14.22 7.94006" stroke="#4A4A49" stroke-width="1.5" stroke-linecap="round" stroke-linejoin="round"/>
</g>
<defs>
<clipPath id="clip0_191_1788">
<rect width="19.5" height="18.95" fill="white"/>
</clipPath>
</defs>
</svg>
