<svg width="18" height="19" viewBox="0 0 18 19" fill="none" xmlns="http://www.w3.org/2000/svg">
<g clip-path="url(#clip0_299_1330)">
<path d="M17.6626 6.13251C17.6212 5.19452 17.4696 4.54966 17.2523 3.99088C17.0281 3.39775 16.6833 2.86672 16.2314 2.42528C15.79 1.97696 15.2555 1.6286 14.6692 1.40794C14.1072 1.19065 13.4657 1.03897 12.5277 0.997614C11.5827 0.952756 11.2827 0.942383 8.88594 0.942383C6.48917 0.942383 6.18917 0.952756 5.24768 0.994112C4.30969 1.03547 3.66483 1.18729 3.10619 1.40444C2.51292 1.6286 1.9819 1.97346 1.54045 2.42528C1.09213 2.86672 0.743906 3.40125 0.523116 3.98751C0.305828 4.54966 0.154144 5.19102 0.112787 6.12901C0.0679289 7.074 0.0575562 7.374 0.0575562 9.77077C0.0575562 12.1675 0.0679289 12.4675 0.109285 13.409C0.150641 14.347 0.30246 14.9919 0.519748 15.5507C0.743906 16.1438 1.09213 16.6748 1.54045 17.1163C1.9819 17.5646 2.51643 17.9129 3.10269 18.1336C3.66483 18.3509 4.30619 18.5026 5.24431 18.5439C6.18567 18.5854 6.48581 18.5957 8.88258 18.5957C11.2793 18.5957 11.5793 18.5854 12.5208 18.5439C13.4588 18.5026 14.1037 18.3509 14.6623 18.1336C15.8487 17.6749 16.7867 16.7369 17.2454 15.5507C17.4626 14.9885 17.6144 14.347 17.6557 13.409C17.6971 12.4675 17.7075 12.1675 17.7075 9.77077C17.7075 7.374 17.704 7.074 17.6626 6.13251ZM16.0729 13.3401C16.0349 14.2022 15.8901 14.6678 15.7694 14.9781C15.4727 15.7472 14.8624 16.3576 14.0933 16.6542C13.7829 16.7749 13.314 16.9197 12.4552 16.9576C11.5241 16.9991 11.2449 17.0093 8.88945 17.0093C6.53403 17.0093 6.25127 16.9991 5.32352 16.9576C4.46138 16.9197 3.99582 16.7749 3.68544 16.6542C3.30273 16.5128 2.95437 16.2886 2.67161 15.9955C2.37848 15.7092 2.15432 15.3644 2.01288 14.9816C1.89218 14.6713 1.74736 14.2022 1.70951 13.3436C1.66802 12.4124 1.65778 12.1331 1.65778 9.77764C1.65778 7.42223 1.66802 7.13947 1.70951 6.21186C1.74736 5.34971 1.89218 4.88415 2.01288 4.57378C2.15432 4.19093 2.37848 3.8427 2.67512 3.55981C2.96124 3.26668 3.3061 3.04252 3.68895 2.90121C3.99932 2.78051 4.46838 2.63569 5.32703 2.59771C6.25814 2.55635 6.53753 2.54598 8.89281 2.54598C11.2517 2.54598 11.531 2.55635 12.4587 2.59771C13.3209 2.63569 13.7864 2.78051 14.0968 2.90121C14.4795 3.04252 14.8279 3.26668 15.1106 3.55981C15.4038 3.84607 15.6279 4.19093 15.7694 4.57378C15.8901 4.88415 16.0349 5.35308 16.0729 6.21186C16.1142 7.14297 16.1246 7.42223 16.1246 9.77764C16.1246 12.1331 16.1142 12.4089 16.0729 13.3401Z" fill="black"/>
<path d="M8.88615 5.23584C6.38256 5.23584 4.35126 7.267 4.35126 9.77073C4.35126 12.2745 6.38256 14.3056 8.88615 14.3056C11.3899 14.3056 13.4211 12.2745 13.4211 9.77073C13.4211 7.267 11.3899 5.23584 8.88615 5.23584ZM8.88615 12.7124C7.26195 12.7124 5.94448 11.3951 5.94448 9.77073C5.94448 8.1464 7.26195 6.82906 8.88615 6.82906C10.5105 6.82906 11.8278 8.1464 11.8278 9.77073C11.8278 11.3951 10.5105 12.7124 8.88615 12.7124Z" fill="black"/>
<path d="M14.6591 5.05674C14.6591 5.64138 14.185 6.11543 13.6003 6.11543C13.0156 6.11543 12.5416 5.64138 12.5416 5.05674C12.5416 4.47196 13.0156 3.99805 13.6003 3.99805C14.185 3.99805 14.6591 4.47196 14.6591 5.05674Z" fill="black"/>
</g>
<defs>
<clipPath id="clip0_299_1330">
<rect width="17.6533" height="17.6533" fill="white" transform="translate(0.0266724 0.942383)"/>
</clipPath>
</defs>
</svg>
