<svg width="32" height="32" viewBox="0 0 32 32" fill="none" xmlns="http://www.w3.org/2000/svg">
<g clip-path="url(#clip0_220_315)">
<path d="M15.9997 28.4742C15.7768 28.4743 15.5595 28.404 15.3788 28.2734C15.0639 28.0451 14.7681 27.7915 14.4944 27.5151L5.48581 18.5065C5.20893 18.2326 4.95496 17.9364 4.72645 17.621C3.52554 16.0383 2.91777 14.0845 3.00895 12.0999C3.10014 10.1152 3.8845 8.22541 5.22548 6.75948C6.56646 5.29354 8.37911 4.34436 10.3478 4.07719C12.3165 3.81001 14.3166 4.24178 15.9997 5.29731C17.6842 4.24096 19.686 3.80934 21.6561 4.0777C23.6262 4.34607 25.4396 5.29739 26.7802 6.76581C28.1207 8.23422 28.9034 10.1266 28.9916 12.1129C29.0799 14.0992 28.4682 16.0535 27.2632 17.6351C27.0373 17.9452 26.7867 18.2366 26.5137 18.5062L17.5051 27.5148C17.2314 27.7912 16.9356 28.0448 16.6207 28.2731C16.4401 28.4038 16.2227 28.4742 15.9997 28.4742ZM11.4962 6.12827C10.3087 6.126 9.14425 6.45619 8.13469 7.08147C7.12513 7.70675 6.31076 8.60215 5.78376 9.66632C5.25676 10.7305 5.03818 11.9209 5.15275 13.1029C5.26732 14.2849 5.71046 15.4112 6.43203 16.3543C6.59889 16.5861 6.78488 16.8035 6.98806 17.0043L15.9967 26.0129H16.0028L25.0114 17.0043C25.207 16.8117 25.3864 16.6033 25.5478 16.3813L25.5675 16.3543C26.5038 15.1293 26.9636 13.6059 26.8613 12.0674C26.759 10.5289 26.1017 9.07983 25.0114 7.9895C23.9211 6.89917 22.4721 6.24173 20.9336 6.13936C19.3951 6.03699 17.8717 6.49665 16.6466 7.43292C16.461 7.57522 16.2336 7.65234 15.9997 7.65234C15.7659 7.65234 15.5385 7.57522 15.3529 7.43292C14.2464 6.58454 12.8905 6.12584 11.4962 6.12827Z" fill="#FFDA00"/>
</g>
<defs>
<clipPath id="clip0_220_315">
<rect width="32" height="32" fill="white"/>
</clipPath>
</defs>
</svg>
