<svg width="32" height="32" viewBox="0 0 32 32" fill="none" xmlns="http://www.w3.org/2000/svg">
<g clip-path="url(#clip0_220_310)">
<path d="M19.8307 15.7053C21.694 14.466 22.9333 12.3427 22.9333 9.93333C22.9333 6.11133 19.822 3 16 3C12.178 3 9.06667 6.11133 9.06667 9.93333C9.06667 12.3427 10.306 14.466 12.1693 15.714C6.86533 17.3433 3 22.292 3 28.1333C3 28.61 3.39 29 3.86667 29C4.34333 29 4.73333 28.61 4.73333 28.1333C4.73333 21.9193 9.786 16.8667 16 16.8667C22.214 16.8667 27.2667 21.9193 27.2667 28.1333C27.2667 28.61 27.6567 29 28.1333 29C28.61 29 29 28.61 29 28.1333C29 22.292 25.1347 17.3433 19.8307 15.7053ZM10.8 9.93333C10.8 7.06467 13.1313 4.73333 16 4.73333C18.8687 4.73333 21.2 7.06467 21.2 9.93333C21.2 12.802 18.8687 15.1333 16 15.1333C13.1313 15.1333 10.8 12.802 10.8 9.93333Z" fill="#FFDA00"/>
</g>
<defs>
<clipPath id="clip0_220_310">
<rect width="32" height="32" fill="white"/>
</clipPath>
</defs>
</svg>
