<svg width="149" height="47" viewBox="0 0 149 47" fill="none" xmlns="http://www.w3.org/2000/svg">
<path d="M91.9051 15.2202H86.4974V38.0833H91.9051V15.2202Z" fill="#FFDA00"/>
<path d="M95.4515 15.2202V20.9297V38.0833H100.859V24.0485L108.329 28.3747L115.774 24.0485V38.0833H121.182V15.2202L108.329 22.6652L95.4515 15.2202Z" fill="#FFDA00"/>
<path d="M58.1764 21.0302V32.4492C58.1764 33.9583 58.7801 35.3668 59.8868 36.4484C60.9935 37.5048 62.4522 38.1084 64.0117 38.1084H82.9259V32.8516H65.8478C64.8417 32.8516 63.9865 32.0468 63.9865 31.0659V22.2878C63.9865 21.3069 64.8165 20.5021 65.8478 20.5021H82.9259V15.2453H64.1877C60.8677 15.2201 58.1764 17.8359 58.1764 21.0302Z" fill="#FFDA00"/>
<path d="M148.975 32.2984V20.8794C148.975 19.3703 148.371 17.9618 147.264 16.9054C146.158 15.849 144.699 15.2454 143.14 15.2454H130.237C126.917 15.2454 124.225 17.836 124.225 21.0555V32.4744C124.225 33.9835 124.829 35.3921 125.936 36.4736C127.042 37.53 128.501 38.1336 130.061 38.1336H142.964C146.284 38.0833 148.975 35.4927 148.975 32.2984ZM143.567 31.0659C143.567 32.0469 142.737 32.8517 141.706 32.8517H131.595C130.589 32.8517 129.759 32.0469 129.734 31.0659V22.2879C129.734 21.307 130.564 20.5021 131.595 20.5021H141.706C142.712 20.5021 143.567 21.307 143.567 22.2879V31.0659Z" fill="#FFDA00"/>
<path d="M23.4165 0.531378L0 14.0631V20.5523L23.4165 7.02058C24.6237 6.31632 26.5856 6.31632 27.7929 7.02058L45.6004 17.3077V23.973L27.7929 13.6858C26.5856 12.9816 24.6237 12.9816 23.4165 13.6858L0 27.2176V46.8612L23.4165 33.3295C24.6237 32.6252 26.5856 32.6252 27.7929 33.3295L51.2093 46.8612V40.372L27.7929 26.8403C26.5856 26.136 24.6237 26.136 23.4165 26.8403L5.60888 37.1274V30.437L23.4165 20.1499C24.6237 19.4456 26.5856 19.4456 27.7929 20.1499L51.2093 33.6816V14.038L27.7929 0.506225C26.5856 -0.172877 24.6237 -0.172876 23.4165 0.531378Z" fill="#FFDA00"/>
<path d="M58.1764 42.9879H60.3898V46.8864H60.9683V42.9879H63.1817V42.51H58.1764V42.9879Z" fill="#FFDA00"/>
<path d="M65.2944 44.8743H68.8408V44.3713H65.2944V42.9879H68.9917V42.51H64.6907V46.8864H69.0169V46.3834H65.2944V44.8743Z" fill="#FFDA00"/>
<path d="M75.2042 45.6792C75.2042 46.2828 74.9779 46.4337 74.173 46.4337H72.1106C71.5321 46.4337 71.0793 46.2577 71.0793 45.5031V43.8682C71.0793 43.1137 71.5321 42.9376 72.1106 42.9376H74.173C74.7263 42.9376 75.1791 42.9628 75.1791 43.7173V43.9185H75.7073V43.5412C75.7073 42.9628 75.4054 42.4597 74.3239 42.4597H72.0602C70.8781 42.4597 70.5008 42.9879 70.5008 44.0946V45.3019C70.5008 46.4086 70.8781 46.9368 72.0602 46.9368H74.2988C75.5312 46.9368 75.7827 46.5092 75.7827 45.7043V45.4025H75.2294V45.6792H75.2042Z" fill="#FFDA00"/>
<path d="M82.272 46.3331L78.2728 42.51H77.3925V46.8864H77.971V43.0382L81.9953 46.8864H82.8756V42.51H82.272V46.3331Z" fill="#FFDA00"/>
<path d="M88.6605 42.4597H86.1453C84.9632 42.4597 84.5859 42.9879 84.5859 44.0946V45.3019C84.5859 46.4086 84.9632 46.9368 86.1453 46.9368H88.6605C89.8427 46.9368 90.22 46.4086 90.22 45.3019V44.0946C90.22 42.9879 89.8427 42.4597 88.6605 42.4597ZM89.6163 45.5031C89.6163 46.2577 89.1636 46.4337 88.5851 46.4337H86.1957C85.6172 46.4337 85.1644 46.2577 85.1644 45.5031V43.8682C85.1644 43.1137 85.6172 42.9376 86.1957 42.9376H88.5851C89.1636 42.9376 89.6163 43.1137 89.6163 43.8682V45.5031Z" fill="#FFDA00"/>
<path d="M92.5088 42.51H91.9303V46.8864H95.9295V46.3834H92.5088V42.51Z" fill="#FFDA00"/>
<path d="M101.337 42.4597H98.8219C97.6397 42.4597 97.2625 42.9879 97.2625 44.0946V45.3019C97.2625 46.4086 97.6397 46.9368 98.8219 46.9368H101.337C102.519 46.9368 102.897 46.4086 102.897 45.3019V44.0946C102.897 42.9879 102.519 42.4597 101.337 42.4597ZM102.293 45.5031C102.293 46.2577 101.84 46.4337 101.262 46.4337H98.8722C98.2937 46.4337 97.841 46.2577 97.841 45.5031V43.8682C97.841 43.1137 98.2937 42.9376 98.8722 42.9376H101.262C101.84 42.9376 102.293 43.1137 102.293 43.8682V45.5031Z" fill="#FFDA00"/>
<path d="M107.172 45.2013H109.411V45.654C109.411 46.2577 109.059 46.4589 108.455 46.4589H106.141C105.563 46.4589 105.11 46.2828 105.11 45.5282V43.8934C105.11 43.1388 105.563 42.9627 106.141 42.9627H107.675C109.134 42.9627 109.386 43.0131 109.386 43.8431H109.939V43.6922C109.939 42.6861 109.109 42.4849 108.304 42.4849H106.066C104.884 42.4849 104.506 43.0131 104.506 44.1197V45.327C104.506 46.4337 104.884 46.9619 106.066 46.9619H108.505C109.587 46.9619 109.989 46.5343 109.989 45.3522V44.7485H107.147V45.2013H107.172Z" fill="#FFDA00"/>
<path d="M112.329 42.51H111.725V46.8864H112.329V42.51Z" fill="#FFDA00"/>
<path d="M116.403 42.51L113.812 46.8864H114.492L115.045 45.9558H118.541L119.094 46.8864H119.773L117.183 42.51H116.403ZM115.322 45.4779L116.78 42.9879L118.239 45.4779H115.322Z" fill="#FFDA00"/>
<path d="M126.891 42.51L124.301 46.8864H124.98L125.533 45.9558H129.029L129.583 46.8864H130.262L127.671 42.51H126.891ZM125.785 45.4779L127.244 42.9879L128.702 45.4779H125.785Z" fill="#FFDA00"/>
<path d="M135.267 46.8864H135.846V44.8743H139.291V44.3713H135.846V42.9879H139.417V42.51H135.267V46.8864Z" fill="#FFDA00"/>
<path d="M141.656 42.51H141.052V46.8864H141.656V42.51Z" fill="#FFDA00"/>
<path d="M147.441 42.4597H144.925C143.743 42.4597 143.366 42.9879 143.366 44.0946V45.3019C143.366 46.4086 143.743 46.9368 144.925 46.9368H147.441C148.623 46.9368 149 46.4086 149 45.3019V44.0946C149 42.9879 148.623 42.4597 147.441 42.4597ZM148.396 45.5031C148.396 46.2577 147.944 46.4337 147.365 46.4337H144.976C144.397 46.4337 143.944 46.2577 143.944 45.5031V43.8682C143.944 43.1137 144.397 42.9376 144.976 42.9376H147.365C147.944 42.9376 148.396 43.1137 148.396 43.8682V45.5031Z" fill="#FFDA00"/>
</svg>
