<svg width="22" height="22" viewBox="0 0 22 22" fill="none" xmlns="http://www.w3.org/2000/svg">
<path d="M9.4936 2.54615C10.8798 2.54659 12.2379 2.93744 13.4123 3.67393C14.5867 4.41043 15.53 5.46279 16.134 6.7105C16.7381 7.95821 16.9785 9.35082 16.8278 10.7288C16.6771 12.1069 16.1413 13.4146 15.2818 14.5022L14.7652 15.1981L14.0905 15.7358C13.1663 16.4599 12.0826 16.9531 10.9296 17.1743C9.77651 17.3956 8.58731 17.3386 7.46071 17.008C6.33411 16.6774 5.30264 16.0828 4.45196 15.2736C3.60128 14.4644 2.95594 13.4639 2.56954 12.3552C2.18314 11.2465 2.06682 10.0616 2.23026 8.89896C2.39369 7.7363 2.83216 6.6294 3.50924 5.67021C4.18633 4.71101 5.08248 3.92719 6.12329 3.38385C7.1641 2.84051 8.31952 2.55333 9.4936 2.54615ZM9.4936 0.437501C7.97892 0.436758 6.48607 0.798626 5.13985 1.49285C3.79363 2.18708 2.63317 3.19349 1.75547 4.42795C0.877769 5.66241 0.30834 7.08905 0.094786 8.5886C-0.118768 10.0881 0.0297587 11.617 0.527949 13.0474C1.02614 14.4778 1.85952 15.7682 2.95841 16.8106C4.05731 17.8531 5.38978 18.6173 6.84445 19.0394C8.29912 19.4616 9.83371 19.5293 11.3199 19.2371C12.8061 18.9448 14.2008 18.301 15.3873 17.3594L19.4148 21.387C19.5551 21.5174 19.7399 21.5891 19.9314 21.5873C20.2512 21.575 20.5536 21.4389 20.7749 21.2077C20.9621 21.0397 21.0831 20.8103 21.116 20.5608C21.1488 20.3114 21.0914 20.0585 20.9541 19.8477L16.9266 15.8201C18.0343 14.4224 18.7257 12.7409 18.9215 10.9683C19.1173 9.19568 18.8096 7.40377 18.0337 5.79802C17.2578 4.19227 16.045 2.83768 14.5346 1.88956C13.0241 0.94145 11.277 0.438195 9.4936 0.437501Z" fill="#FFDA00"/>
</svg>
