<svg width="46" height="30" viewBox="0 0 46 30" fill="none" xmlns="http://www.w3.org/2000/svg">
<mask id="mask0_299_1182" style="mask-type:alpha" maskUnits="userSpaceOnUse" x="0" y="0" width="47" height="30">
<path fill-rule="evenodd" clip-rule="evenodd" d="M42.6016 29.3573H4.24469C2.39058 29.3573 1 27.8402 1 26.0898V4.2675C1 2.40036 2.50646 1 4.24469 1H42.7174C44.5716 1 45.9621 2.51706 45.9621 4.2675V25.9731C45.9621 27.8402 44.4557 29.3573 42.6016 29.3573Z" fill="white" stroke="white" stroke-width="0.25" stroke-miterlimit="10"/>
</mask>
<g mask="url(#mask0_299_1182)">
<path fill-rule="evenodd" clip-rule="evenodd" d="M0.567383 0H45.6454V30.2244H0.567383V0Z" fill="#007BC4"/>
<path fill-rule="evenodd" clip-rule="evenodd" d="M0.567383 12.7198C17.4861 8.75208 32.0872 9.68565 45.6454 12.7198V30.2243H0.567383V12.7198Z" fill="#E30613"/>
<path fill-rule="evenodd" clip-rule="evenodd" d="M0.567383 17.5045C15.9797 14.237 31.0443 14.4704 45.6454 17.5045V30.2245H0.567383V17.5045Z" fill="#FFDE54"/>
<path fill-rule="evenodd" clip-rule="evenodd" d="M31.5078 10.5028C30.6966 7.4687 27.2202 5.25146 23.1643 5.25146C18.9926 5.25146 15.5161 7.4687 14.705 10.5028C20.3832 9.91933 25.9455 10.036 31.5078 10.5028Z" fill="#FFDE54"/>
<path fill-rule="evenodd" clip-rule="evenodd" d="M11.4603 24.5063L14.5891 20.8887H15.7479L19.1085 24.5063H17.8338L16.7908 23.3393H13.4303L12.5032 24.5063H11.4603ZM13.7779 22.9892H16.5591L15.7479 22.0556C15.5161 21.7055 15.2844 21.4722 15.1685 21.3555C15.0526 21.5889 14.9367 21.8222 14.705 22.0556L13.7779 22.9892ZM23.512 24.5063V24.1562C23.2802 24.2729 23.0484 24.3896 22.7008 24.5063C22.469 24.5063 22.1214 24.5063 21.6579 24.5063C21.1943 24.5063 20.8467 24.5063 20.499 24.3896C20.1514 24.2729 19.9196 24.1562 19.8038 24.0395C19.6879 23.9228 19.6879 23.6894 19.6879 23.456V21.8222H20.7308V23.3393C20.7308 23.5727 20.7308 23.8061 20.8467 23.9228C20.9626 24.0395 21.0785 24.0395 21.3102 24.1562C21.542 24.1562 21.7737 24.2729 22.0055 24.2729C22.469 24.2729 22.8167 24.1562 23.1643 24.0395C23.3961 23.9228 23.512 23.6894 23.512 23.3393V21.9389H24.5549V24.5063H23.512ZM25.9455 24.5063V21.9389H26.8725V22.289C27.1043 22.0556 27.3361 21.9389 27.4519 21.9389C27.6837 21.8222 27.7996 21.8222 28.1472 21.8222C28.4949 21.8222 28.8425 21.8222 29.1902 21.9389L28.8425 22.289C28.6108 22.1723 28.379 22.1723 28.1472 22.1723C27.9155 22.1723 27.7996 22.1723 27.5678 22.289C27.3361 22.289 27.2202 22.4057 27.2202 22.5224C27.1043 22.6391 26.9884 22.8725 26.9884 23.1059V24.5063H25.9455ZM33.5937 24.1562C33.246 24.2729 32.8984 24.3896 32.5507 24.3896C32.2031 24.5063 31.8555 24.5063 31.3919 24.5063C30.8125 24.5063 30.349 24.3896 29.8855 24.2729C29.5378 24.1562 29.3061 23.9228 29.3061 23.6894C29.3061 23.5727 29.4219 23.456 29.5378 23.3393C29.6537 23.2226 29.8855 23.1059 30.2331 23.1059C30.5808 22.9892 30.9284 22.9892 31.6237 22.9892C32.4349 22.9892 33.0143 22.8725 33.3619 22.8725V22.7558C33.3619 22.5224 33.246 22.4057 33.1302 22.4057C32.8984 22.289 32.5507 22.289 31.9713 22.289C31.5078 22.289 31.1602 22.289 30.9284 22.4057C30.6966 22.5224 30.5808 22.6391 30.4649 22.7558L29.5378 22.6391C29.6537 22.4057 30.0013 22.1723 30.349 22.0556C30.8125 21.9389 31.3919 21.8222 32.2031 21.8222C32.7825 21.8222 33.246 21.8222 33.5937 21.9389C33.9413 22.0556 34.1731 22.1723 34.289 22.289C34.4049 22.4057 34.4049 22.6391 34.4049 22.8725V23.3393C34.4049 23.8061 34.4049 24.0395 34.5207 24.1562C34.5207 24.2729 34.6366 24.3896 34.7525 24.5063H33.7096C33.7096 24.3896 33.5937 24.2729 33.5937 24.1562ZM33.4778 23.1059C33.1302 23.2226 32.5507 23.2226 31.8555 23.2226C31.3919 23.2226 31.1602 23.2226 30.9284 23.3393C30.8125 23.3393 30.5808 23.456 30.5808 23.456C30.4649 23.5727 30.4649 23.5727 30.4649 23.6894C30.4649 23.8061 30.5808 23.9228 30.8125 24.0395C31.0443 24.1562 31.2761 24.1562 31.7396 24.1562C32.0872 24.1562 32.4349 24.1562 32.6666 24.0395C32.8984 23.9228 33.1302 23.9228 33.3619 23.8061C33.4778 23.6894 33.5937 23.5727 33.5937 23.3393V23.1059H33.4778Z" fill="#007BC4"/>
</g>
</svg>
