<svg width="31" height="15" viewBox="0 0 31 15" fill="none" xmlns="http://www.w3.org/2000/svg">
<path d="M4.00878 0.98584H2.50232V7.05406H4.00878V0.98584Z" fill="#010202"/>
<path d="M4.93582 0.98584H4.47229V7.05406H4.93582V0.98584Z" fill="#010202"/>
<path d="M6.09462 0.98584H5.28345V7.05406H6.09462V0.98584Z" fill="#010202"/>
<path d="M7.36935 0.98584H6.90582V7.05406H7.36935V0.98584Z" fill="#010202"/>
<path d="M7.83288 0.98584H7.48523V7.05406H7.83288V0.98584Z" fill="#010202"/>
<path d="M1.92288 0.98584H1.45935V14.6393H1.92288V0.98584Z" fill="#010202"/>
<path d="M1.22762 0.98584H0.416443V14.6393H1.22762V0.98584Z" fill="#010202"/>
<path d="M11.7729 0.98584H10.2664V7.05406H11.7729V0.98584Z" fill="#010202"/>
<path d="M12.584 0.98584H12.1205V7.05406H12.584V0.98584Z" fill="#010202"/>
<path d="M13.7429 0.98584H12.9317V7.05406H13.7429V0.98584Z" fill="#010202"/>
<path d="M15.0175 0.98584H14.554V7.05406H15.0175V0.98584Z" fill="#010202"/>
<path d="M15.597 0.98584H15.2493V7.05406H15.597V0.98584Z" fill="#010202"/>
<path d="M9.57107 0.98584H9.10754V7.05406H9.57107V0.98584Z" fill="#010202"/>
<path d="M8.99171 0.98584H8.18054V7.05406H8.99171V0.98584Z" fill="#010202"/>
<path d="M16.9876 0.98584H16.1764V7.05406H16.9876V0.98584Z" fill="#010202"/>
<path d="M18.1463 0.98584H17.6828V7.05406H18.1463V0.98584Z" fill="#010202"/>
<path d="M18.7258 0.98584H18.3781V7.05406H18.7258V0.98584Z" fill="#010202"/>
<path d="M20.464 0.98584H20.0005V7.05406H20.464V0.98584Z" fill="#010202"/>
<path d="M19.7687 0.98584H18.9575V7.05406H19.7687V0.98584Z" fill="#010202"/>
<path d="M21.5069 0.98584H21.0434V7.05406H21.5069V0.98584Z" fill="#010202"/>
<path d="M22.0863 0.98584H21.7386V7.05406H22.0863V0.98584Z" fill="#010202"/>
<path d="M23.8246 0.98584H23.361V7.05406H23.8246V0.98584Z" fill="#010202"/>
<path d="M23.1293 0.98584H22.3181V7.05406H23.1293V0.98584Z" fill="#010202"/>
<path d="M25.6787 0.98584H24.1722V7.05406H25.6787V0.98584Z" fill="#010202"/>
<path d="M26.4899 0.98584H26.0264V7.05406H26.4899V0.98584Z" fill="#010202"/>
<path d="M27.7645 0.98584H26.9534V7.05406H27.7645V0.98584Z" fill="#010202"/>
<path d="M28.9234 0.98584H28.4598V7.05406H28.9234V0.98584Z" fill="#010202"/>
<path d="M29.5028 0.98584H29.1552V7.05406H29.5028V0.98584Z" fill="#010202"/>
<path d="M30.8934 0.98584H30.0822V14.6393H30.8934V0.98584Z" fill="#010202"/>
<path d="M2.61823 14.4061V7.521H5.16762C5.74703 7.521 6.09468 7.63769 6.44233 7.75439C6.78997 7.87109 7.02173 8.10448 7.13762 8.45457C7.36938 8.68796 7.36938 9.03805 7.36938 9.38814C7.36938 9.73823 7.2535 9.97162 7.13762 10.205C7.02173 10.4384 6.78997 10.6718 6.44233 10.7885C6.90585 10.9052 7.13762 11.1386 7.36938 11.372C7.60114 11.7221 7.71702 12.0722 7.71702 12.4223C7.71702 12.7723 7.60114 13.0057 7.48526 13.3558C7.36938 13.5892 7.13762 13.8226 7.02173 14.056C6.78997 14.1727 6.55821 14.2894 6.32644 14.4061C5.9788 14.5228 5.63115 14.5228 5.16762 14.5228H2.61823V14.4061ZM3.54528 10.3217H5.05174C5.39939 10.3217 5.74703 10.3217 5.86292 10.205C6.09468 10.0883 6.32644 9.97162 6.44233 9.85493C6.55821 9.73823 6.67409 9.50484 6.67409 9.27145C6.67409 9.03805 6.67409 8.80466 6.55821 8.68796C6.44232 8.45457 6.32644 8.33787 6.09468 8.33787C5.86292 8.22118 5.51527 8.22118 5.05174 8.22118H3.54528V10.3217ZM3.54528 13.5892H5.28351C5.63115 13.5892 5.74703 13.5892 5.86292 13.5892C6.09468 13.5892 6.21056 13.4725 6.44233 13.3558C6.67409 13.2391 6.67409 13.1224 6.78997 13.0057C6.90585 12.889 6.90585 12.6556 6.90585 12.4223C6.90585 12.1889 6.78997 11.9555 6.67409 11.7221C6.55821 11.4887 6.32644 11.372 6.09468 11.372C5.86292 11.2553 5.51527 11.2553 5.05174 11.2553H3.54528V13.5892Z" fill="#010202"/>
<path d="M8.64404 11.8388C8.64404 10.9052 8.87581 10.2051 9.45522 9.73827C9.91874 9.38818 10.3823 9.15479 11.0776 9.15479C11.7729 9.15479 12.3523 9.38818 12.6999 9.85497C13.1634 10.3218 13.3952 10.9052 13.3952 11.7221C13.3952 12.4223 13.2793 12.8891 13.1634 13.2392C12.9317 13.5893 12.6999 13.9393 12.3523 14.056C12.0046 14.2894 11.5411 14.4061 11.1934 14.4061C10.4982 14.4061 9.91874 14.1727 9.45522 13.706C8.87581 13.3559 8.64404 12.6557 8.64404 11.8388ZM9.45522 11.8388C9.45522 12.539 9.5711 13.0058 9.91874 13.2392C10.1505 13.5893 10.4982 13.706 10.9617 13.706C11.4252 13.706 11.7729 13.5893 12.0046 13.2392C12.2364 12.8891 12.4681 12.4223 12.4681 11.7221C12.4681 11.1386 12.3523 10.6718 12.0046 10.3218C11.7729 9.97166 11.4252 9.85497 10.9617 9.85497C10.4982 9.85497 10.1505 9.97166 9.91874 10.3218C9.5711 10.7885 9.45522 11.2553 9.45522 11.8388Z" fill="#010202"/>
<path d="M14.2064 14.4061V7.4043H15.1335V14.4061H14.2064Z" fill="#010202"/>
<path d="M19.7687 12.7724L20.6958 12.8891C20.5799 13.3559 20.3481 13.8226 19.8846 14.056C19.537 14.2894 19.0734 14.5228 18.494 14.5228C17.7987 14.5228 17.2193 14.2894 16.7558 13.8227C16.4082 13.3559 16.1764 12.6557 16.1764 11.8388C16.1764 11.0219 16.4082 10.3218 16.8717 9.85497C17.3352 9.38818 17.9146 9.15479 18.494 9.15479C19.1893 9.15479 19.6528 9.38818 20.1164 9.85497C20.5799 10.3218 20.6958 10.9052 20.6958 11.8388C20.6958 11.8388 20.6958 11.9555 20.6958 12.0722H16.9876C16.9876 12.6557 17.2193 13.0058 17.4511 13.3559C17.6829 13.706 18.0305 13.8227 18.494 13.8227C18.8417 13.8227 19.0734 13.706 19.3052 13.5893C19.537 13.3559 19.6528 13.1225 19.7687 12.7724ZM17.1034 11.372H19.8846C19.8846 10.9052 19.7687 10.6718 19.537 10.4384C19.3052 10.0884 18.9576 9.97166 18.494 9.97166C18.1464 9.97166 17.7987 10.0884 17.567 10.3218C17.2193 10.5551 17.1034 10.9052 17.1034 11.372Z" fill="#010202"/>
<path d="M23.5928 13.5892L23.7087 14.2894C23.4769 14.2894 23.2452 14.4061 23.1293 14.4061C22.7816 14.4061 22.5499 14.4061 22.434 14.2894C22.3181 14.1727 22.2022 14.056 22.0863 13.9393C21.9705 13.8226 21.9705 13.4725 21.9705 12.889V9.97162H21.3911V9.27144H21.9705V7.98778L22.7816 7.521V9.27144H23.5928V9.97162H22.7816V12.889C22.7816 13.1224 22.7816 13.2391 22.7816 13.3558C22.7816 13.4725 22.8975 13.4725 22.8975 13.4725C23.0134 13.4725 23.0134 13.5892 23.1293 13.5892C23.361 13.5892 23.4769 13.5892 23.5928 13.5892Z" fill="#010202"/>
<path d="M24.1722 11.8388C24.1722 10.9052 24.404 10.2051 24.9834 9.73827C25.4469 9.38818 25.9105 9.15479 26.6058 9.15479C27.301 9.15479 27.8805 9.38818 28.2281 9.85497C28.6916 10.3218 28.9234 10.9052 28.9234 11.7221C28.9234 12.4223 28.8075 12.8891 28.6916 13.2392C28.4599 13.5893 28.2281 13.9393 27.8805 14.056C27.5328 14.2894 27.0693 14.4061 26.7216 14.4061C26.0263 14.4061 25.4469 14.1727 24.9834 13.706C24.2881 13.3559 24.1722 12.6557 24.1722 11.8388ZM24.9834 11.8388C24.9834 12.539 25.0993 13.0058 25.4469 13.2392C25.6787 13.5893 26.0263 13.706 26.4899 13.706C26.9534 13.706 27.301 13.5893 27.5328 13.2392C27.7646 12.8891 27.9963 12.4223 27.9963 11.7221C27.9963 11.1386 27.8805 10.6718 27.5328 10.3218C27.301 9.97166 26.9534 9.85497 26.4899 9.85497C26.0263 9.85497 25.6787 9.97166 25.4469 10.3218C25.0993 10.7885 24.9834 11.2553 24.9834 11.8388Z" fill="#010202"/>
</svg>
