<svg width="18" height="19" viewBox="0 0 18 19" fill="none" xmlns="http://www.w3.org/2000/svg">
<g clip-path="url(#clip0_299_1334)">
<path d="M9.14656 0.942383C4.30735 0.943118 1.73511 4.04349 1.73511 7.4241C1.73511 8.99157 2.61115 10.9474 4.01386 11.5675C4.414 11.7477 4.36104 11.5278 4.70528 10.2111C4.7325 10.1015 4.71852 10.0066 4.63025 9.90439C2.62513 7.58519 4.23894 2.81731 8.86043 2.81731C15.5488 2.81731 14.2991 12.0721 10.0241 12.0721C8.92222 12.0721 8.10134 11.2071 8.36099 10.1368C8.67581 8.86211 9.2922 7.49177 9.2922 6.57306C9.2922 4.25753 5.84245 4.60104 5.84245 7.66904C5.84245 8.61717 6.17786 9.2571 6.17786 9.2571C6.17786 9.2571 5.06791 13.741 4.86195 14.5788C4.5133 15.997 4.90903 18.2927 4.9436 18.4905C4.96493 18.5994 5.08703 18.634 5.15544 18.5442C5.26504 18.4008 6.60669 16.4869 6.98256 15.1033C7.11937 14.5994 7.6806 12.5546 7.6806 12.5546C8.05059 13.2225 9.11714 13.7815 10.2536 13.7815C13.6342 13.7815 16.0777 10.8099 16.0777 7.12252C16.0659 3.58744 13.0406 0.942383 9.14656 0.942383V0.942383Z" fill="black"/>
</g>
<defs>
<clipPath id="clip0_299_1334">
<rect width="17.6533" height="17.6533" fill="white" transform="translate(0.0799561 0.942383)"/>
</clipPath>
</defs>
</svg>
