<svg width="23" height="16" viewBox="0 0 23 16" fill="none" xmlns="http://www.w3.org/2000/svg">
<path d="M11.1436 15.1247C11.1418 15.1247 11.1397 15.1247 11.1377 15.1247C10.4719 15.1205 4.5855 15.0709 2.91778 14.6549C1.75225 14.3658 0.832192 13.518 0.518041 12.4426C0.0816638 10.9312 0.109442 8.02136 0.112473 7.78901C0.109611 7.55775 0.0814954 4.62385 0.516694 3.10005C0.517199 3.09866 0.517536 3.0971 0.518041 3.09571C0.828656 2.03258 1.76943 1.15846 2.91492 0.868647C2.91778 0.86787 2.92081 0.867249 2.92367 0.866472C4.57254 0.466692 10.4705 0.417768 11.1377 0.413574H11.1497C11.8172 0.417768 17.7192 0.467313 19.3716 0.884023C20.5341 1.17229 21.4535 2.01906 21.7685 3.09307C22.2212 4.61795 22.1793 7.55821 22.1748 7.80641C22.178 8.05087 22.2044 10.9346 21.7705 12.4536C21.7702 12.4551 21.7697 12.4565 21.7694 12.4579C21.455 13.5333 20.5351 14.3812 19.3683 14.6705C19.3668 14.671 19.3651 14.6713 19.3636 14.6718C17.7149 15.0714 11.8167 15.1203 11.1497 15.1247C11.1477 15.1247 11.1456 15.1247 11.1436 15.1247ZM2.18307 3.50791C1.7999 4.85294 1.83609 7.7494 1.83643 7.7786V7.79957C1.82498 8.60286 1.86522 10.9292 2.18324 12.031C2.33746 12.5586 2.79117 12.9765 3.36661 13.1193C4.59712 13.4263 9.39137 13.5229 11.1436 13.5343C12.9004 13.5229 17.7017 13.429 18.9231 13.1342C19.4967 12.991 19.9489 12.5744 20.1042 12.0462C20.4225 10.9282 20.4624 8.61327 20.4508 7.8151C20.4508 7.80672 20.4508 7.79833 20.451 7.78994C20.4668 6.97702 20.4356 4.62354 20.1057 3.51288C20.1053 3.51179 20.105 3.51071 20.1048 3.50962C19.9499 2.97969 19.4961 2.56173 18.9206 2.419C17.7021 2.11163 12.9001 2.01534 11.1436 2.004C9.38801 2.01534 4.5914 2.10915 3.36628 2.40362C2.80178 2.54807 2.33779 2.98093 2.18307 3.50791ZM20.937 12.251H20.9375H20.937ZM8.94641 10.9896V4.54852L14.9803 7.76913L8.94641 10.9896Z" fill="black"/>
</svg>
